<svg width="100%" xmlns="http://www.w3.org/2000/svg" xmlns:xlink="http://www.w3.org/1999/xlink" viewBox="0 0 253.42 32.64"><defs><style>.cls-1{fill:none;}.cls-2{clip-path:url(#clip-path);}.cls-3{fill:#0072b1;}</style><clipPath id="clip-path" transform="translate(0 0)"><rect class="cls-1" width="253.42" height="32.64"></rect></clipPath></defs><g class="cls-2"><path class="cls-3" d="M21.68,10.26c1.78-1,3.51-2.18,5.26-3.3q.89-.56,1.8-1.08c-.18-.22-.36-.43-.55-.63-1.15.42-2.27.9-3.38,1.41L19.2,9.23a61.9,61.9,0,0,1-11.67,4.1A45.32,45.32,0,0,1,.12,14.4,15.23,15.23,0,0,0,0,16.32,15.81,15.81,0,0,0,.09,18a45.78,45.78,0,0,0,10.51-2.4,60.45,60.45,0,0,0,11.08-5.35M14,18.89c3.27-2.14,6.37-4.55,9.44-7L28,8.21,29.58,7c-.21-.31-.42-.61-.65-.9-.59.4-1.18.8-1.75,1.22-1.7,1.18-3.39,2.38-5.14,3.51a53,53,0,0,1-11.15,5.61A42.21,42.21,0,0,1,.18,18.74a16.38,16.38,0,0,0,2,5.78c.46-.12.91-.25,1.35-.4A43.92,43.92,0,0,0,14,18.89M31,9.53c-.4.83-.74,1.69-1.06,2.55-.8,2.1-1.54,4.24-2.44,6.32a52.65,52.65,0,0,1-3.08,6.09,55.44,55.44,0,0,1-3.84,5.64c-.62.79-1.26,1.57-1.91,2.33A16.31,16.31,0,0,0,31,9.53m-6,5.36c1.37-1.77,2.65-3.62,4-5.44.38-.5.76-1,1.16-1.46-.14-.23-.27-.47-.42-.69-.49.43-1,.86-1.46,1.3-1.47,1.31-2.93,2.63-4.43,3.92a90.43,90.43,0,0,1-9.39,7.23A39.31,39.31,0,0,1,3.78,24.89c-.38.11-.78.21-1.17.3A16.42,16.42,0,0,0,7.89,30.3a78.7,78.7,0,0,0,7.92-5.79,59.33,59.33,0,0,0,9.25-9.62M26.68,18c1-2,1.81-4.1,2.75-6.16a28,28,0,0,1,1.41-2.72c-.13-.25-.25-.5-.39-.75-.32.46-.63.92-.93,1.39-1.22,1.88-2.4,3.81-3.72,5.66a51.89,51.89,0,0,1-4.29,5.29,54.8,54.8,0,0,1-5,4.69,66.69,66.69,0,0,1-7.63,5.46,16.1,16.1,0,0,0,7.32,1.76l.77,0c.91-1,1.8-2.12,2.65-3.22a59.33,59.33,0,0,0,7-11.38M18.94,8.6c3-1.19,6-2.59,9.1-3.51A16.23,16.23,0,0,0,.23,13.57a47.42,47.42,0,0,0,7.1-1.1A74.59,74.59,0,0,0,18.94,8.6" transform="translate(0 0)"></path></g></svg>